<svg width="1228" height="89" viewBox="0 0 1228 89" fill="none" xmlns="http://www.w3.org/2000/svg">
<path opacity="0.8" d="M48.499 86L4.432 39.713V86H0.769V2.74999H4.432V32.942L39.175 2.74999H44.392L5.431 36.05L53.383 86H48.499ZM150.524 86H146.639L130.877 54.254H86.6995L71.2705 86H67.3855L108.899 0.751999L150.524 86ZM129.545 51.035L108.677 8.744L88.2535 51.035H129.545ZM256.027 2.74999V86H252.364V8.078L213.07 87.554L173.998 7.079V86H170.335V2.74999H175.552L213.07 80.006L250.921 2.74999H256.027ZM281.308 2.74999H311.167V5.969H284.971V51.257H306.838V54.476H284.971V82.781H311.167V86H281.308V2.74999ZM333.814 11.075V86H330.595V1.529L391.867 77.564V2.74999H395.086V87.221L333.814 11.075ZM423.642 11.075V86H420.423V1.529L481.695 77.564V2.74999H484.914V87.221L423.642 11.075ZM545.629 11.075V86H542.41V1.529L603.682 77.564V2.74999H606.901V87.221L545.629 11.075ZM671.976 88.22C664.206 88.22 656.991 86.185 650.331 82.115C643.671 78.045 638.38 72.643 634.458 65.909C630.61 59.101 628.686 51.812 628.686 44.042C628.686 36.346 630.647 29.168 634.569 22.508C638.491 15.774 643.782 10.446 650.442 6.524C657.102 2.528 664.317 0.529996 672.087 0.529996C679.931 0.529996 687.146 2.491 693.732 6.413C700.318 10.335 705.535 15.663 709.383 22.397C713.305 29.057 715.266 36.272 715.266 44.042C715.266 52.034 713.305 59.434 709.383 66.242C705.535 72.976 700.281 78.341 693.621 82.337C687.035 86.259 679.82 88.22 671.976 88.22ZM671.976 85.001C679.08 85.001 685.666 83.188 691.734 79.562C697.802 75.862 702.612 70.904 706.164 64.688C709.79 58.398 711.603 51.59 711.603 44.264C711.603 37.012 709.827 30.278 706.275 24.062C702.723 17.846 697.913 12.925 691.845 9.299C685.777 5.59899 679.191 3.74899 672.087 3.74899C664.909 3.74899 658.286 5.59899 652.218 9.299C646.15 12.925 641.303 17.846 637.677 24.062C634.125 30.278 632.349 37.012 632.349 44.264C632.349 51.59 634.125 58.398 637.677 64.688C641.303 70.904 646.15 75.862 652.218 79.562C658.286 83.188 664.872 85.001 671.976 85.001ZM854.543 2.74999V86H850.88V8.078L811.586 87.554L772.514 7.079V86H768.851V2.74999H774.068L811.586 80.006L849.437 2.74999H854.543ZM879.824 2.74999H909.683V5.969H883.487V51.257H905.354V54.476H883.487V82.781H909.683V86H879.824V2.74999ZM968.849 3.74899C961.523 3.74899 954.826 5.63599 948.758 9.40999C942.764 13.11 937.991 18.105 934.439 24.395C930.961 30.611 929.222 37.308 929.222 44.486C929.222 51.738 930.998 58.472 934.55 64.688C938.102 70.904 942.801 75.862 948.647 79.562C954.567 83.188 960.931 85.001 967.739 85.001C971.735 85.001 975.287 84.631 978.395 83.891C981.577 83.151 984.611 81.967 987.497 80.339V54.254H959.969V51.035H991.16V78.008L991.382 77.897V82.004C987.83 84.15 984.167 85.704 980.393 86.666C976.693 87.702 972.623 88.22 968.183 88.22C960.413 88.22 953.272 86.333 946.76 82.559C940.248 78.711 935.068 73.457 931.22 66.797C927.446 60.063 925.559 52.515 925.559 44.153C925.559 36.087 927.52 28.724 931.442 22.064C935.438 15.404 940.729 10.15 947.315 6.30199C953.975 2.45399 961.042 0.529996 968.516 0.529996C973.696 0.529996 977.803 1.011 980.837 1.973C983.871 2.86099 987.386 4.45199 991.382 6.74599V10.853C987.608 8.263 984.093 6.45 980.837 5.414C977.655 4.304 973.659 3.74899 968.849 3.74899ZM1092.09 86H1088.21L1072.44 54.254H1028.27L1012.84 86H1008.95L1050.47 0.751999L1092.09 86ZM1071.11 51.035L1050.24 8.744L1029.82 51.035H1071.11ZM1197.59 2.74999V86H1193.93V8.078L1154.64 87.554L1115.56 7.079V86H1111.9V2.74999H1117.12L1154.64 80.006L1192.49 2.74999H1197.59ZM1223.43 2.74999H1227.09V86H1223.43V2.74999Z" fill="url(#paint0_linear_492_101)"/>
<defs>
<linearGradient id="paint0_linear_492_101" x1="30.7977" y1="59.9993" x2="1266.53" y2="59.9993" gradientUnits="userSpaceOnUse">
<stop stop-color="#FAD6E5"/>
<stop offset="0.270833" stop-color="#FBE7E5"/>
<stop offset="0.489583" stop-color="#F6F5E6"/>
<stop offset="0.713542" stop-color="#EAF2ED"/>
<stop offset="0.958333" stop-color="#E0F0F2"/>
</linearGradient>
</defs>
</svg>
